<svg id="logo" xmlns="http://www.w3.org/2000/svg" width="128" height="128" viewBox="0 0 128 128">
  <rect id="Rectangle_16" data-name="Rectangle 16" width="128" height="128" rx="64" fill="#06BDF3"/>
  <path id="Ellipse" d="M0,7a7,7,0,1,1,7,7A7,7,0,0,1,0,7Z" transform="translate(57 15)" fill="#1d2d3c"/>
  <path id="Ellipse_Copy_9" data-name="Ellipse Copy 9" d="M0,7a7,7,0,1,1,7,7A7,7,0,0,1,0,7Z" transform="translate(37 29)" fill="#1d2d3c"/>
  <path id="Ellipse_Copy_10" data-name="Ellipse Copy 10" d="M0,7a7,7,0,1,1,7,7A7,7,0,0,1,0,7Z" transform="translate(77 29)" fill="#1d2d3c"/>
  <path id="Ellipse_Copy" data-name="Ellipse Copy" d="M0,7a7,7,0,1,1,7,7A7,7,0,0,1,0,7Z" transform="translate(57 43)" fill="#1d2d3c"/>
  <path id="Ellipse_Copy_13" data-name="Ellipse Copy 13" d="M0,7a7,7,0,1,1,7,7A7,7,0,0,1,0,7Z" transform="translate(18 43)" fill="#1d2d3c"/>
  <path id="Rectangle_17_Copy_9" data-name="Rectangle 17 Copy 9" d="M.03,0,12.641,0S8.352,5.484,8.352,10.984s4.3,11,4.3,11H0S4.352,16.5,4.352,11,.03,0,.03,0Z" transform="translate(57.648 53)" fill="#1d2d3c"/>
  <path id="Rectangle_17_Copy_11" data-name="Rectangle 17 Copy 11" d="M.03,0,12.641,0S8.352,5.484,8.352,10.984s4.3,11,4.3,11H0S4.352,16.5,4.352,11,.03,0,.03,0Z" transform="translate(77.7 39.016)" fill="#1d2d3c"/>
  <path id="Rectangle_17_Copy_14" data-name="Rectangle 17 Copy 14" d="M.03,0,12.641,0S8.352,5.484,8.352,10.984s4.3,11,4.3,11H0S4.352,16.5,4.352,11,.03,0,.03,0Z" transform="translate(96.7 53)" fill="#1d2d3c"/>
  <path id="Rectangle_17_Copy_13" data-name="Rectangle 17 Copy 13" d="M.03,0,12.641,0S8.352,5.484,8.352,10.984s4.3,11,4.3,11H0S4.352,16.5,4.352,11,.03,0,.03,0Z" transform="translate(77.7 67)" fill="#1d2d3c"/>
  <path id="Rectangle_17_Copy_10" data-name="Rectangle 17 Copy 10" d="M.03,0,12.641,0S8.352,5.484,8.352,10.984s4.3,11,4.3,11H0S4.352,16.5,4.352,11,.03,0,.03,0Z" transform="translate(57.648 81)" fill="#1d2d3c"/>
  <path id="Rectangle_17_Copy_8" data-name="Rectangle 17 Copy 8" d="M.03,0,12.641,0S8.326,5.484,8.326,10.984s4.326,11,4.326,11H0s4.326-5.5,4.326-11S.03,0,.03,0Z" transform="translate(57.674 25.016)" fill="#1d2d3c"/>
  <path id="Rectangle_17_Copy_15" data-name="Rectangle 17 Copy 15" d="M.03,0,12.641,0S8.326,5.484,8.326,10.984s4.326,11,4.326,11H0s4.326-5.5,4.326-11S.03,0,.03,0Z" transform="translate(37.648 39.016)" fill="#1d2d3c"/>
  <path id="Rectangle_17_Copy_16" data-name="Rectangle 17 Copy 16" d="M.03,0,12.641,0S8.326,5.484,8.326,10.984s4.326,11,4.326,11H0s4.326-5.5,4.326-11S.03,0,.03,0Z" transform="translate(37.648 67)" fill="#1d2d3c"/>
  <path id="Rectangle_17_Copy_17" data-name="Rectangle 17 Copy 17" d="M-.03,0-12.641,0s4.315,5.484,4.315,10.984-4.326,11-4.326,11H0s-4.326-5.5-4.326-11S-.03,0-.03,0Z" transform="translate(31.302 53.016)" fill="#1d2d3c"/>
  <path id="Ellipse_Copy_2" data-name="Ellipse Copy 2" d="M0,7a7,7,0,1,1,7,7A7,7,0,0,1,0,7Z" transform="translate(37 85)" fill="#1d2d3c"/>
  <path id="Ellipse_Copy_6" data-name="Ellipse Copy 6" d="M0,7a7,7,0,1,1,7,7A7,7,0,0,1,0,7Z" transform="translate(37 57)" fill="#1d2d3c"/>
  <path id="Ellipse_Copy_11" data-name="Ellipse Copy 11" d="M0,7a7,7,0,1,1,7,7A7,7,0,0,1,0,7Z" transform="translate(77 57)" fill="#1d2d3c"/>
  <path id="Ellipse_Copy_12" data-name="Ellipse Copy 12" d="M0,7a7,7,0,1,1,7,7A7,7,0,0,1,0,7Z" transform="translate(96 43)" fill="#1d2d3c"/>
  <path id="Ellipse_Copy_7" data-name="Ellipse Copy 7" d="M0,7a7,7,0,1,1,7,7A7,7,0,0,1,0,7Z" transform="translate(18 71)" fill="#1d2d3c"/>
  <path id="Ellipse_Copy_8" data-name="Ellipse Copy 8" d="M0,7a7,7,0,1,1,7,7A7,7,0,0,1,0,7Z" transform="translate(96 71)" fill="#1d2d3c"/>
  <path id="Ellipse_Copy_4" data-name="Ellipse Copy 4" d="M0,7a7,7,0,1,1,7,7A7,7,0,0,1,0,7Z" transform="translate(57 71)" fill="#1d2d3c"/>
  <path id="Ellipse_Copy_5" data-name="Ellipse Copy 5" d="M0,7a7,7,0,1,1,7,7A7,7,0,0,1,0,7Z" transform="translate(77 85)" fill="#1d2d3c"/>
  <path id="Ellipse_Copy_3" data-name="Ellipse Copy 3" d="M0,7a7,7,0,1,1,7,7A7,7,0,0,1,0,7Z" transform="translate(57 99)" fill="#1d2d3c"/>
</svg>
